<svg width="79" height="22" viewBox="0 0 79 22" fill="none" xmlns="http://www.w3.org/2000/svg">
<path d="M0.932129 0.699999H9.47213C11.1335 0.699999 12.5055 1.176 13.5881 2.128C14.6708 3.06133 15.2121 4.89067 15.2121 7.616C15.2121 12.3573 13.3175 14.728 9.52813 14.728C8.94946 14.728 8.10013 14.6813 6.98013 14.588C5.86013 14.4947 4.99213 14.4013 4.37613 14.308V21.364H0.932129V0.699999ZM9.02413 11.592C9.8828 11.592 10.5455 11.284 11.0121 10.668C11.4975 10.052 11.7401 9.044 11.7401 7.644C11.7401 5.08667 10.8721 3.808 9.13613 3.808H4.37613V11.592H9.02413Z" fill="#191919"/>
<path d="M24.1227 21.504C22.4614 21.504 21.1547 21.28 20.2027 20.832C19.2694 20.3653 18.588 19.5907 18.1587 18.508C17.748 17.4067 17.5427 15.8573 17.5427 13.86C17.5427 11.8253 17.7387 10.2573 18.1307 9.156C18.5414 8.05467 19.204 7.28 20.1187 6.832C21.052 6.384 22.3587 6.16 24.0387 6.16C25.5134 6.16 26.68 6.30933 27.5387 6.608C28.3974 6.90667 29.0227 7.42933 29.4147 8.176C29.8067 8.904 30.0027 9.93067 30.0027 11.256C30.0027 12.6373 29.6014 13.6267 28.7987 14.224C28.0147 14.8213 26.8667 15.12 25.3547 15.12H20.9587C20.996 16.0907 21.1267 16.8467 21.3507 17.388C21.5747 17.9107 21.9667 18.2933 22.5267 18.536C23.1054 18.7787 23.936 18.9 25.0187 18.9H29.5547V20.944C28.5467 21.1307 27.6414 21.2707 26.8387 21.364C26.0547 21.4573 25.1494 21.504 24.1227 21.504ZM25.0187 13.02C25.6907 13.02 26.176 12.8893 26.4747 12.628C26.7734 12.3667 26.9227 11.9093 26.9227 11.256C26.9227 10.2853 26.708 9.61333 26.2787 9.24C25.8494 8.86667 25.1027 8.68 24.0387 8.68C23.236 8.68 22.6107 8.81067 22.1627 9.072C21.7334 9.31467 21.416 9.744 21.2107 10.36C21.024 10.976 20.9307 11.8627 20.9307 13.02H25.0187Z" fill="#191919"/>
<path d="M41.1484 21.532C40.2151 21.532 39.3751 21.392 38.6284 21.112C37.9004 20.8133 37.2098 20.412 36.5564 19.908L35.9684 21.364H33.0844V0H36.5564V7.504C37.2658 7.112 38.0124 6.79467 38.7964 6.552C39.5991 6.29067 40.3271 6.16 40.9804 6.16C42.2498 6.16 43.2764 6.42133 44.0604 6.944C44.8444 7.46667 45.4138 8.30667 45.7684 9.464C46.1418 10.6027 46.3284 12.1147 46.3284 14C46.3284 16.5013 45.9084 18.3867 45.0684 19.656C44.2284 20.9067 42.9218 21.532 41.1484 21.532ZM39.8884 18.704C40.8404 18.704 41.5684 18.3213 42.0724 17.556C42.5951 16.7907 42.8564 15.5493 42.8564 13.832C42.8564 12.488 42.7258 11.4613 42.4644 10.752C42.2218 10.0427 41.8858 9.56667 41.4564 9.324C41.0458 9.08133 40.5231 8.96 39.8884 8.96C38.8431 8.96 37.7324 9.28667 36.5564 9.94V17.78C37.7138 18.396 38.8244 18.704 39.8884 18.704Z" fill="#191919"/>
<path d="M55.6807 21.504C54.0567 21.504 52.7593 21.2707 51.7887 20.804C50.818 20.3373 50.0993 19.5533 49.6327 18.452C49.1847 17.3507 48.9607 15.8107 48.9607 13.832C48.9607 11.7787 49.1847 10.2013 49.6327 9.1C50.0993 7.99867 50.8087 7.23333 51.7607 6.804C52.7313 6.37467 54.038 6.16 55.6807 6.16C57.342 6.16 58.6487 6.384 59.6007 6.832C60.5713 7.26133 61.29 8.036 61.7567 9.156C62.2233 10.2573 62.4567 11.816 62.4567 13.832C62.4567 15.848 62.2327 17.4067 61.7847 18.508C61.3367 19.6093 60.6273 20.384 59.6567 20.832C58.686 21.28 57.3607 21.504 55.6807 21.504ZM55.6807 18.732C56.5207 18.732 57.1647 18.62 57.6127 18.396C58.0793 18.172 58.4247 17.7147 58.6487 17.024C58.8727 16.3147 58.9847 15.2413 58.9847 13.804C58.9847 12.3853 58.8727 11.3307 58.6487 10.64C58.4247 9.93067 58.0793 9.47333 57.6127 9.268C57.1647 9.044 56.5207 8.932 55.6807 8.932C54.8593 8.932 54.2153 9.044 53.7487 9.268C53.3007 9.47333 52.9647 9.93067 52.7407 10.64C52.5167 11.3307 52.4047 12.3853 52.4047 13.804C52.4047 15.2413 52.5167 16.3147 52.7407 17.024C52.9647 17.7147 53.3007 18.172 53.7487 18.396C54.2153 18.62 54.8593 18.732 55.6807 18.732Z" fill="#191919"/>
<path d="M71.8135 21.504C70.1895 21.504 68.8921 21.2707 67.9215 20.804C66.9508 20.3373 66.2321 19.5533 65.7655 18.452C65.3175 17.3507 65.0935 15.8107 65.0935 13.832C65.0935 11.7787 65.3175 10.2013 65.7655 9.1C66.2321 7.99867 66.9415 7.23333 67.8935 6.804C68.8641 6.37467 70.1708 6.16 71.8135 6.16C73.4748 6.16 74.7815 6.384 75.7335 6.832C76.7041 7.26133 77.4228 8.036 77.8895 9.156C78.3561 10.2573 78.5895 11.816 78.5895 13.832C78.5895 15.848 78.3655 17.4067 77.9175 18.508C77.4695 19.6093 76.7601 20.384 75.7895 20.832C74.8188 21.28 73.4935 21.504 71.8135 21.504ZM71.8135 18.732C72.6535 18.732 73.2975 18.62 73.7455 18.396C74.2121 18.172 74.5575 17.7147 74.7815 17.024C75.0055 16.3147 75.1175 15.2413 75.1175 13.804C75.1175 12.3853 75.0055 11.3307 74.7815 10.64C74.5575 9.93067 74.2121 9.47333 73.7455 9.268C73.2975 9.044 72.6535 8.932 71.8135 8.932C70.9921 8.932 70.3481 9.044 69.8815 9.268C69.4335 9.47333 69.0975 9.93067 68.8735 10.64C68.6495 11.3307 68.5375 12.3853 68.5375 13.804C68.5375 15.2413 68.6495 16.3147 68.8735 17.024C69.0975 17.7147 69.4335 18.172 69.8815 18.396C70.3481 18.62 70.9921 18.732 71.8135 18.732Z" fill="#191919"/>
</svg>
